<svg width="81" height="42" viewBox="0 0 81 42" fill="none" xmlns="http://www.w3.org/2000/svg">
<path d="M76.7741 4.26163L76.6915 4.27599V20.6304V36.9812H76.907H77.1224L77.1152 20.616L77.1044 4.25445L76.9788 4.25086C76.9105 4.24727 76.8172 4.25086 76.7741 4.26163Z" fill="#223C75"/>
<path d="M42.5465 13.7406L42.5429 17.5034L42.4101 17.3526C42.0403 16.9397 41.4802 16.5304 40.9165 16.2611C40.2164 15.9272 39.5521 15.7908 38.633 15.7872C37.0963 15.78 35.9581 16.2324 34.9528 17.2485C33.8469 18.3615 33.1971 19.8515 32.9745 21.7796C32.9278 22.1781 32.9206 22.5048 32.935 23.3917C32.9457 24.0021 32.9745 24.634 32.996 24.792C33.2832 26.8421 34.1054 28.4793 35.3765 29.5313C36.3602 30.3463 37.3943 30.6695 38.8484 30.6156C39.509 30.5905 39.9543 30.5115 40.4713 30.3392C41.1714 30.0986 41.9146 29.6211 42.3993 29.0933C42.6435 28.8312 42.6543 28.824 42.6543 28.9245C42.6543 28.982 42.6794 29.3195 42.7081 29.6749C42.7368 30.0304 42.762 30.332 42.762 30.3463C42.762 30.3643 43.2718 30.3751 43.8929 30.3751H45.0239V20.1783V9.98145H43.7852H42.5465V13.7406ZM40.2953 17.9666C40.4677 18.0168 40.7154 18.1066 40.8411 18.164C41.394 18.4154 41.9721 18.936 42.3778 19.5427L42.5824 19.8515V23.1763V26.4974L42.4352 26.7416C42.2234 27.0934 42.0367 27.3196 41.7243 27.6176C41.2504 28.0736 40.8519 28.2962 40.2164 28.4614C39.7891 28.5727 39.0136 28.6122 38.5576 28.5475C38.159 28.4901 37.6672 28.3213 37.362 28.1418C37.0855 27.9767 36.5864 27.5207 36.3566 27.2155C35.6098 26.2389 35.2903 24.8925 35.3406 22.9608C35.3693 21.8227 35.4949 21.0687 35.7858 20.286C36.0335 19.611 36.2956 19.2124 36.827 18.7026C37.1429 18.3974 37.4122 18.2251 37.8108 18.0635C38.2955 17.8732 38.5001 17.8445 39.2793 17.8588C39.9076 17.8696 40.0117 17.8804 40.2953 17.9666Z" fill="#223C75"/>
<path d="M23.3378 15.8014C21.1189 15.9163 19.2052 17.2016 18.1855 19.2625C17.5536 20.5335 17.3059 21.8189 17.3526 23.5351C17.4208 25.8725 18.085 27.5672 19.4637 28.9315C20.3218 29.7753 21.3666 30.3067 22.6197 30.5365C23.0685 30.619 24.2605 30.6514 24.7309 30.5903C25.5136 30.497 26.1132 30.3174 26.7918 29.9764C27.3662 29.6891 27.7791 29.4019 28.2064 28.9998C29.0178 28.2314 29.5744 27.341 29.9406 26.2208C30.2924 25.158 30.393 24.3968 30.3643 23.0325C30.3535 22.476 30.3212 21.9338 30.2853 21.6861C29.8616 18.6486 27.9838 16.4764 25.2982 15.9198C25.0576 15.8732 24.6878 15.8229 24.4688 15.8121C24.2534 15.8049 24.0164 15.7906 23.9482 15.787C23.8799 15.7798 23.6035 15.787 23.3378 15.8014ZM24.5406 17.8264C25.2479 17.9413 25.7326 18.1674 26.2712 18.6378C27.4273 19.6395 28.0269 21.3234 27.9587 23.3556C27.8905 25.3986 27.4129 26.7163 26.3861 27.7C25.6464 28.4109 24.8853 28.6802 23.7327 28.6407C22.8854 28.612 22.3971 28.472 21.8334 28.0986C21.4815 27.8688 20.9681 27.3482 20.724 26.9819C20.0669 25.9946 19.7833 24.8851 19.7833 23.3018C19.7833 22.2821 19.9089 21.3952 20.1603 20.6197C20.6378 19.1656 21.7149 18.1172 23.0147 17.8407C23.3988 17.7617 24.099 17.7545 24.5406 17.8264Z" fill="#223C75"/>
<path d="M54.1436 15.8016C53.1024 15.8627 51.9499 16.254 51.0882 16.8429C50.9087 16.9649 50.6035 17.2199 50.406 17.4066C49.7705 18.0098 49.4114 18.5052 49.0093 19.3346C48.6036 20.1676 48.363 21.0078 48.2517 21.9736C48.1871 22.5373 48.1979 23.977 48.2697 24.5407C48.5102 26.4293 49.2104 27.8906 50.4204 29.0324C51.5513 30.1023 52.9696 30.6265 54.7181 30.6301C55.8742 30.6301 56.7898 30.4254 57.6981 29.9587C59.637 28.9713 60.8541 27.0576 61.1844 24.4869C61.2419 24.0596 61.2419 22.6701 61.1844 22.0992C61.0516 20.7492 60.6351 19.489 60.014 18.5663C59.2169 17.3778 58.1254 16.5197 56.9083 16.1248C56.0214 15.8375 55.2028 15.7406 54.1436 15.8016ZM55.569 17.859C56.2333 18.0026 56.8041 18.3185 57.2996 18.8176C58.4521 19.9701 58.9548 21.7187 58.7717 23.9375C58.6676 25.2337 58.3588 26.239 57.831 27.0181C57.6371 27.3054 57.0842 27.8727 56.8364 28.0414C56.2261 28.4543 55.5511 28.6518 54.736 28.6518C53.6158 28.6518 52.8188 28.3322 52.0899 27.5854C51.4185 26.8996 51.0092 26.081 50.7866 24.9752C50.546 23.7796 50.6142 22.0274 50.9446 20.8821C51.4257 19.2197 52.5315 18.1031 53.9713 17.8266C54.3088 17.762 55.21 17.78 55.569 17.859Z" fill="#223C75"/>
<path d="M8.38359 15.8481C6.99768 16.0743 5.89183 16.6416 4.98705 17.5859C4.08585 18.523 3.46471 19.873 3.21338 21.4348C3.12002 22.0057 3.09848 23.7937 3.17388 24.5118C3.37854 26.4291 3.98891 27.8257 5.1163 28.9567C5.81643 29.6569 6.5776 30.0985 7.5937 30.3929C8.51284 30.6586 9.77308 30.716 10.6563 30.5329C12.3366 30.1847 13.7585 29.2117 14.5555 27.8652C14.893 27.2908 15.1085 26.6732 15.1695 26.0916L15.1946 25.851H14.0457H12.9003L12.8752 26.0341C12.789 26.666 12.3726 27.3913 11.8483 27.8186C11.1051 28.4182 10.3152 28.6767 9.33505 28.6408C8.29383 28.6013 7.5901 28.3284 6.94024 27.7073C6.35859 27.1472 5.99596 26.4686 5.76976 25.5099C5.59742 24.7847 5.58306 24.5872 5.58306 23.1941C5.58306 22.0847 5.59383 21.8297 5.64768 21.5246C5.88824 20.2105 6.24729 19.4134 6.88997 18.7779C7.34596 18.3255 7.80553 18.067 8.46617 17.891C8.77854 17.8049 8.88266 17.7977 9.46072 17.7941C10.1465 17.7905 10.3224 17.8192 10.7748 18.0023C11.5575 18.3183 12.2361 18.9574 12.57 19.6934C12.6921 19.9627 12.8357 20.4797 12.8716 20.7706L12.8968 20.968H14.0457H15.1946L15.1695 20.67C15.1336 20.2428 15.0259 19.7365 14.8787 19.3129C14.6058 18.5265 14.3078 18.067 13.6472 17.4099C12.8106 16.5769 12.0494 16.164 10.9005 15.9199C10.5127 15.8337 10.3691 15.823 9.56843 15.8122C8.9437 15.805 8.58465 15.8158 8.38359 15.8481Z" fill="#223C75"/>
<path d="M68.99 15.8481C67.6041 16.0743 66.4983 16.6416 65.5935 17.5859C64.6923 18.523 64.0712 19.873 63.8198 21.4348C63.7265 22.0057 63.7049 23.7937 63.7803 24.5118C63.985 26.4291 64.5918 27.8222 65.7227 28.9567C66.6024 29.84 67.7226 30.3821 69.0726 30.576C69.5358 30.6406 70.4908 30.6514 70.9109 30.594C73.4063 30.2457 75.4708 28.3715 75.7616 26.1921C75.7831 26.0198 75.7939 25.8797 75.7903 25.8726C75.7831 25.869 75.2625 25.8726 74.6378 25.8797L73.496 25.8941L73.4781 26.0269C73.3416 26.9174 72.8174 27.6498 71.9557 28.1597C71.3382 28.5259 70.7314 28.6695 69.9415 28.6408C68.9003 28.6013 68.1966 28.3284 67.5467 27.7073C66.965 27.1472 66.6024 26.4686 66.3762 25.5099C66.2039 24.7847 66.1895 24.5872 66.1895 23.1941C66.1895 22.0847 66.2003 21.8297 66.2541 21.5246C66.4947 20.2105 66.8537 19.417 67.4964 18.7779C67.9309 18.3434 68.3438 18.0993 68.9075 17.9377C69.5825 17.7474 70.3903 17.7223 71.0007 17.8767C71.5895 18.0275 72.2825 18.4583 72.6846 18.9251C73.0544 19.3559 73.3416 19.9807 73.4458 20.5875C73.4781 20.767 73.5068 20.9178 73.5068 20.9178C73.5104 20.9214 74.0274 20.9321 74.6557 20.9393L75.8011 20.9537L75.7759 20.6629C75.74 20.2428 75.6323 19.7329 75.4851 19.3129C75.2158 18.5337 74.9142 18.067 74.2716 17.4279C73.4278 16.5877 72.6523 16.164 71.5069 15.9199C71.1192 15.8337 70.9755 15.823 70.1749 15.8122C69.5501 15.805 69.1911 15.8158 68.99 15.8481Z" fill="#223C75"/>
</svg>
