<svg width="20" height="20" viewBox="0 0 20 20" fill="none" xmlns="http://www.w3.org/2000/svg">
<path d="M14.9084 4.97484V17.7082H4.97508C3.49175 17.7082 2.29175 16.5082 2.29175 15.0248V4.97484C2.29175 3.49151 3.49175 2.2915 4.97508 2.2915H12.2251C13.7001 2.2915 14.9084 3.49151 14.9084 4.97484Z" stroke="#4B535E" stroke-width="2" stroke-linecap="round" stroke-linejoin="round"/>
<path d="M17.7084 15.9413V11.6663C17.7084 10.2496 16.4501 9.09961 14.9084 9.09961" stroke="#4B535E" stroke-width="2" stroke-linecap="round" stroke-linejoin="round"/>
<path d="M11.8418 17.708H15.9835" stroke="#4B535E" stroke-width="2" stroke-linecap="round" stroke-linejoin="round"/>
<path d="M14.9084 14.0747V16.4247C14.9084 17.133 15.5334 17.708 16.3084 17.708C17.0834 17.708 17.7084 17.133 17.7084 16.4247V14.0747" stroke="#4B535E" stroke-width="2" stroke-linecap="round" stroke-linejoin="round"/>
<path d="M5.7085 5.72461H11.7002" stroke="#4B535E" stroke-width="2" stroke-linecap="round" stroke-linejoin="round"/>
<path d="M5.7085 10H11.7002" stroke="#4B535E" stroke-width="2" stroke-linecap="round" stroke-linejoin="round"/>
<path d="M5.7334 14.2666H7.44173" stroke="#4B535E" stroke-width="2" stroke-linecap="round" stroke-linejoin="round"/>
</svg>
